<svg width="89" height="87" viewBox="0 0 89 87" fill="none" xmlns="http://www.w3.org/2000/svg">
<g opacity="0.5">
<path d="M61.8439 40.7541H61.809C60.2516 40.7541 58.7581 40.1355 57.6569 39.0343C56.5557 37.9331 55.937 36.4395 55.937 34.8822C55.937 33.3249 56.5557 31.8313 57.6569 30.7301C58.7581 29.6289 60.2516 29.0103 61.809 29.0103H61.8594C63.4167 29.0103 64.9103 29.6289 66.0115 30.7301C67.1127 31.8313 67.7313 33.3249 67.7313 34.8822V34.8822C67.7313 36.4395 67.1127 37.9331 66.0115 39.0343C64.9103 40.1355 63.4167 40.7541 61.8594 40.7541H61.8439Z" fill="#7C45FF" fill-opacity="0.7"/>
<path d="M26.678 57.9241H26.6276C25.0702 57.9241 23.5767 57.3054 22.4755 56.2042C21.3743 55.103 20.7556 53.6095 20.7556 52.0521V52.0521C20.7556 50.4948 21.3743 49.0012 22.4755 47.9C23.5767 46.7988 25.0702 46.1802 26.6276 46.1802H26.678C28.2333 46.1833 29.7239 46.8033 30.8226 47.9041C31.9212 49.005 32.5383 50.4968 32.5383 52.0521V52.0521C32.5383 53.6095 31.9196 55.103 30.8184 56.2042C29.7172 57.3054 28.2237 57.9241 26.6663 57.9241H26.678Z" fill="#7C45FF" fill-opacity="0.7"/>
<path d="M44.7514 28.8477H26.6469C23.3911 28.8477 20.7517 31.487 20.7517 34.7429V34.7468C20.7517 38.0026 23.3911 40.642 26.6469 40.642H44.7514C48.0073 40.642 50.6467 38.0026 50.6467 34.7468V34.7429C50.6467 31.487 48.0073 28.8477 44.7514 28.8477Z" fill="#7C45FF" fill-opacity="0.7"/>
<path d="M67.7158 52.0485C67.7158 52.8232 67.5632 53.5903 67.2667 54.306C66.9703 55.0217 66.5357 55.672 65.9879 56.2198C65.4402 56.7676 64.7899 57.2021 64.0741 57.4986C63.3584 57.7951 62.5913 57.9476 61.8167 57.9476H43.7199C42.9452 57.9476 42.1781 57.7951 41.4624 57.4986C40.7467 57.2021 40.0964 56.7676 39.5486 56.2198C39.0008 55.672 38.5663 55.0217 38.2698 54.306C37.9734 53.5903 37.8208 52.8232 37.8208 52.0485V52.0485C37.8218 50.4847 38.4438 48.9852 39.55 47.8798C40.6562 46.7743 42.156 46.1533 43.7199 46.1533H61.8089C62.5836 46.1523 63.3509 46.3039 64.067 46.5994C64.7831 46.8949 65.434 47.3286 65.9825 47.8756C66.531 48.4227 66.9663 49.0724 67.2637 49.7878C67.5611 50.5031 67.7147 51.27 67.7158 52.0447V52.0485Z" fill="#7C45FF" fill-opacity="0.7"/>
</g>
</svg>
